<?xml version="1.0" encoding="utf-8"?>
<!-- Generator: Adobe Illustrator 21.0.0, SVG Export Plug-In . SVG Version: 6.00 Build 0)  -->
<svg version="1.1" id="Layer_1" xmlns="http://www.w3.org/2000/svg" xmlns:xlink="http://www.w3.org/1999/xlink" x="0px" y="0px"
	 viewBox="0 0 100.7 29.6" style="enable-background:new 0 0 100.7 29.6;" xml:space="preserve">
<style type="text/css">
	.st0{fill:#8BC249;}
</style>
<g>
	<path class="st0" d="M10.2,5.9c0-0.1,0.1-0.2,0.2-0.3c0.1-0.1,0.2-0.1,0.3-0.1c0.2,0,0.2,0.1,0.2,0.3c0,0.7,0,1.4-0.1,2.1
		c-0.1,0.7-0.1,1.5-0.1,2.1c-0.1,0.3-0.3,0.4-0.5,0.4c-0.2,0-0.2-0.1-0.2-0.3c0-0.3,0-0.5,0-0.8c0-0.3,0-0.5,0.1-0.8
		C9.8,8.5,9.7,8.4,9.5,8.2C9.4,8,9.2,7.8,9.1,7.6C8.9,7.4,8.7,7.2,8.5,7C8.4,6.8,8.2,6.7,8,6.6C7.7,6.8,7.4,7.2,7.2,7.7
		S6.7,8.9,6.6,9.5c-0.2,0.7-0.3,1.4-0.3,2.2c-0.1,0.8-0.1,1.6-0.1,2.4c0,1,0.1,1.9,0.2,2.9s0.3,1.8,0.5,2.6c0.2,0.8,0.5,1.4,0.8,2
		s0.7,0.9,1.2,1.1c0,0,0.1,0,0.2,0c0.1,0,0.3,0,0.6-0.1c0.3-0.1,0.7-0.2,1.4-0.3c0-1,0-2,0-3c0-1,0-2.1,0-3.1c-0.5,0-1,0-1.5,0
		c-0.5,0-1,0-1.4,0c-0.2,0-0.3-0.1-0.3-0.2c0-0.1,0-0.2,0.1-0.3c0.1-0.1,0.2-0.1,0.3-0.2l6-0.2v0c0.1,0.1,0.2,0.1,0.2,0.2
		c0,0.2-0.1,0.3-0.4,0.4l-2.3,0.2c0,1.3,0.1,2.7,0.2,4c0.1,1.3,0.1,2.6,0.1,4c0,0.3,0,0.6,0,1.1c0,0.4,0,0.9,0,1.3
		c0,0.4-0.1,0.8-0.2,1.1c-0.1,0.3-0.3,0.5-0.5,0.5c-0.1,0-0.2-0.1-0.2-0.2c0,0,0-0.1,0-0.1c0-0.8,0-1.6,0-2.4c0-0.8,0-1.6,0-2.4
		c-0.6,0.3-1.2,0.6-1.9,0.9c-0.7,0.3-1.5,0.5-2.2,0.5c-0.5,0-1-0.1-1.4-0.3c-0.4-0.2-0.8-0.4-1.1-0.6c-0.3-0.3-0.6-0.6-0.9-0.9
		c-0.3-0.3-0.5-0.6-0.7-1c-0.5-0.7-0.8-1.6-1-2.8s-0.3-2.5-0.3-3.9c0-1.9,0.2-3.6,0.5-4.9C2.2,8.9,2.6,7.9,3.1,7
		c0.5-0.8,1-1.4,1.5-1.8c0.6-0.4,1.1-0.6,1.6-0.6C6.7,4.7,7.3,5,8,5.6c0.7,0.6,1.4,1.3,2,2.2C10.1,7.1,10.1,6.5,10.2,5.9z M2.8,9.4
		c-0.3,0.8-0.5,1.7-0.6,2.6C2,12.9,2,13.8,2,14.7c0-0.2,0.2-0.3,0.4-0.4c0-0.8,0-1.6,0.1-2.4C2.5,11.1,2.6,10.3,2.8,9.4z M4.4,21.8
		C3.8,21,3.3,20,3,18.8c0.2,0.9,0.4,1.7,0.8,2.4c0.4,0.7,0.9,1.4,1.5,1.9c-0.2-0.2-0.4-0.4-0.6-0.7C4.6,22.2,4.5,22,4.4,21.8z
		 M3.7,13.5c0-0.7,0.1-1.4,0.1-2.1c0-0.7,0.1-1.4,0.3-2.1c-0.2,0.5-0.3,0.9-0.4,1.3C3.6,11,3.6,11.5,3.6,12
		C3.6,12.4,3.6,12.9,3.7,13.5z M5.1,19.9c-0.2-0.6-0.4-1.2-0.5-2c-0.1-0.7-0.1-1.5-0.1-2.3c0-0.4,0-0.9,0-1.3c0-0.4,0-0.8,0-1.2
		l-0.1,0.6c0,0.6,0,1.1-0.1,1.6c-0.1,0.5-0.1,0.9-0.1,1.3c0,0.8,0.1,1.5,0.3,2.3c0.2,0.8,0.5,1.6,0.9,2.4v0
		c-0.1-0.2-0.1-0.5-0.2-0.7c0-0.2,0-0.4-0.1-0.5L5.1,19.9z M5.3,9.2c0-0.1,0.1-0.3,0.2-0.7c0.1-0.3,0.2-0.7,0.4-1.1
		C5.8,7.5,5.7,7.6,5.7,7.6C5.6,7.7,5.5,7.8,5.4,7.8l0,0c0,0.3-0.1,0.6-0.1,0.9S5.2,9.3,5.2,9.6L5.3,9.2z M6.1,19.9
		c-0.1-0.8-0.3-1.9-0.4-3c-0.1-1.2-0.2-2.4-0.2-3.6c0-0.7,0-1.4,0.1-2.1c0.1-0.7,0.1-1.3,0.3-1.9c0,0,0,0,0,0.1v0
		c-0.2,0.8-0.4,1.7-0.5,2.6c-0.1,0.9-0.2,1.8-0.2,2.7c0,1,0.1,2.1,0.2,3.1s0.4,1.9,0.8,2.8C6.2,20.3,6.1,20.1,6.1,19.9z M6.7,5.7
		c-0.1,0-0.1,0-0.2,0c0,0-0.1,0-0.1,0c-0.1,0-0.1,0-0.1,0.1c0,0,0,0,0,0.1c0,0,0,0,0,0.1c0,0.2,0,0.4,0,0.5C6.4,6.3,6.5,6.1,6.5,6
		C6.6,5.9,6.6,5.8,6.7,5.7z M8.5,23.5c-0.5-0.1-0.9-0.2-1.3-0.5c-0.4-0.3-0.7-0.6-0.8-0.9v0.2c0,0.4,0.2,0.8,0.6,1s0.8,0.3,1.2,0.3
		C8.4,23.5,8.5,23.5,8.5,23.5z M7.2,6C7.2,6,7.2,6,7.2,6C7.1,6.1,7.1,6.2,7,6.3C7,6.5,6.9,6.7,6.8,6.9C6.9,6.8,7,6.6,7.1,6.5
		c0.1-0.1,0.3-0.2,0.4-0.3L7.2,6z"/>
	<path class="st0" d="M14.9,24.9c-0.2,0-0.3-0.1-0.3-0.2c0-0.1,0-0.2,0.1-0.3c0.1-0.1,0.2-0.2,0.3-0.2l1-0.1c0,0-0.1-0.1-0.1-0.1
		l-0.1-6.9c0,0-0.1-0.1-0.1-0.2c0-0.1,0-0.2,0.1-0.2c0-1.8-0.1-3.7-0.1-5.5c-0.1-1.8-0.1-3.7-0.1-5.6l-1.3,0.6c0,0-0.1,0-0.2,0
		c-0.2,0-0.2-0.1-0.2-0.2c0-0.2,0.1-0.3,0.3-0.4l1.4-0.7V4.6c0-0.1,0-0.2,0.1-0.3c0.1-0.1,0.2-0.1,0.3-0.1s0.2,0.1,0.2,0.3v0.2
		c0.2-0.1,0.5-0.2,0.8-0.2s0.7-0.1,1.2-0.1c2.1,0,3.6,0.4,4.5,1.1C23.8,6.1,24.3,7,24.3,8c0,0.7-0.2,1.4-0.5,2.1
		c-0.3,0.7-0.8,1.4-1.5,2.1c0,0,0,0,0,0c0,0,0,0,0,0c0,0.1,0.1,0.4,0.2,0.8c0.1,0.4,0.3,1,0.5,1.6c0.2,0.7,0.4,1.4,0.7,2.2
		c0.3,0.8,0.5,1.6,0.8,2.4c0.3,0.8,0.5,1.6,0.7,2.3c0.2,0.7,0.5,1.4,0.7,2v0.1c0,0.1,0,0.2-0.1,0.3c-0.1,0.1-0.2,0.1-0.3,0.1
		c-0.1,0-0.2-0.1-0.3-0.2c-0.2-0.5-0.4-1.2-0.6-1.9c-0.2-0.7-0.5-1.5-0.7-2.3c-0.3-0.8-0.5-1.6-0.8-2.4c-0.3-0.8-0.5-1.5-0.7-2.2
		c-0.2-0.6-0.4-1.2-0.5-1.6c-0.1-0.4-0.2-0.7-0.2-0.8c-0.2,0.3-0.4,0.4-0.6,0.6c-0.1,0.1-0.3,0.2-0.4,0.3l-0.6,0.5
		c0.1,1.6,0.2,3.2,0.3,4.7c0.1,1.6,0.2,3.1,0.2,4.7c0.2,0,0.5,0,0.7,0c0.2,0,0.5,0,0.7,0c0.2,0,0.3,0.1,0.3,0.2c0,0.1,0,0.2-0.1,0.3
		c-0.1,0.1-0.2,0.2-0.3,0.2c-0.4,0-0.8,0.1-1.3,0.1c-0.5,0.1-1,0.1-1.5,0.2c-0.6,0.1-1.2,0.1-1.9,0.2C16.5,24.8,15.7,24.9,14.9,24.9
		z M16.5,15.2c0,0.2,0,0.3,0,0.5c0,0.2,0,0.3,0,0.5l0.1-0.1c0-0.6-0.1-1.3-0.1-2c0-0.7-0.1-1.3-0.1-2c0,0.2,0,0.3,0,0.4
		c0,0.1,0,0.3,0,0.4c0,0.3,0,0.7,0,1C16.4,14.5,16.5,14.8,16.5,15.2z M16.6,16.9c0,0.3,0,0.6,0.1,0.8c0,0.3,0.1,0.5,0.1,0.7
		L16.6,16.9C16.6,16.8,16.6,16.8,16.6,16.9C16.6,16.9,16.6,16.9,16.6,16.9z M16.8,5.2c0,1.7,0.1,3.4,0.2,5.2
		c0.1,1.8,0.2,3.5,0.3,5.2l0,0c0-0.5,0-1,0-1.5c0-0.5,0-1,0-1.5c0-0.9,0-1.8,0-2.7c0-0.9-0.1-1.9-0.2-2.8c0-0.2-0.1-0.4-0.1-0.5
		c0-0.2,0-0.4,0-0.6c0-0.1,0-0.1,0-0.2s0-0.2,0-0.2L16.8,5.2z M18.1,23.6c-0.1-0.2-0.1-0.5-0.2-0.9c-0.1-0.5-0.1-0.9-0.2-1.5
		s-0.1-1-0.1-1.4c-0.1-0.4-0.1-0.7-0.1-0.9l0.3,5.1l0.4-0.1L18.1,23.6z M18.4,17.9c0-0.4-0.1-0.8-0.1-1.1c0-0.4,0-0.7-0.1-1.1
		c-0.1,0.1-0.1,0.2-0.1,0.2c0,0.1,0,0.2,0,0.3c0,0.4,0,0.9,0,1.5c0,0.6,0.1,1.2,0.1,1.8L18.4,17.9z M18.6,24.2c0-0.1,0-0.3,0-0.5
		c0-0.3,0-0.6-0.1-0.9c0-0.4-0.1-0.7-0.1-1.1c0-0.4-0.1-0.7-0.1-1.1L18.6,24.2z M19.2,5.1c-0.1,0-0.2,0-0.4,0c-0.1,0-0.3,0-0.4,0
		c0.1,0.3,0.1,0.6,0.1,1c0,0.2,0,0.5,0,0.7c0,0.2,0,0.4,0,0.6l0.1,3.5c0.1,0.5,0.1,1,0.2,1.5c0.1,0.5,0.1,1,0.2,1.5
		c0.1,0,0.1,0,0.2-0.1c0.1,0,0.1-0.1,0.2-0.1c-0.1-1.4-0.2-2.8-0.2-4.1c-0.1-1.4-0.1-2.8-0.1-4.2c0-0.1,0-0.2,0-0.2
		C19.2,5.2,19.2,5.2,19.2,5.1z M19.1,15c0,0,0,0.3,0,0.7c0,0.5,0,1.1,0,1.8c0,0.8,0.1,1.6,0.1,2.4c0,0.8,0.1,1.5,0.1,2.2
		s0.1,1.2,0.2,1.4c0-0.2,0.1-0.5,0.1-1.1s0-1.1,0-1.8c0-1,0-2,0-3.1c0-1.1-0.1-2.1-0.1-2.9L19.1,15z M19.8,5.3
		c0,1.4,0.1,2.7,0.1,4.1c0.1,1.4,0.1,2.7,0.2,4.1c0.4-0.3,0.8-0.7,1.2-1.1c0.4-0.4,0.8-0.8,1.1-1.3c0.3-0.5,0.6-1,0.8-1.5
		c0.2-0.5,0.3-1,0.3-1.6c0-0.7-0.3-1.3-1-1.8S20.9,5.3,19.8,5.3C19.7,5.2,19.7,5.2,19.8,5.3C19.8,5.2,19.8,5.3,19.8,5.3z M24.1,24.7
		c-0.2,0-0.3-0.1-0.3-0.2c0-0.1,0-0.2,0.1-0.3c0.1-0.1,0.2-0.2,0.3-0.2c0.5,0,1.1-0.1,1.5-0.3c0.5-0.2,1-0.3,1.5-0.3
		c0.2,0,0.3,0.1,0.3,0.2c0,0.2-0.1,0.4-0.4,0.5L24.1,24.7z"/>
	<path class="st0" d="M30,5.7c0.4-0.3,0.8-0.5,1.4-0.7c0.5-0.2,1.1-0.2,1.6-0.2c0.7,0,1.4,0.1,2,0.4c0.6,0.3,1.1,0.6,1.6,1.1
		c2.5,2.8,3.7,5.7,3.7,8.7c0,1.6-0.4,3.3-1.1,5c-0.4,0.6-0.8,1.3-1.3,1.8c-0.5,0.6-0.9,1.1-1.4,1.5c-0.5,0.4-1,0.8-1.6,1
		c-0.6,0.2-1.1,0.4-1.7,0.4c-1.1,0-2-0.3-2.8-0.9c-0.8-0.6-1.4-1.4-2-2.4c-0.5-1-0.9-2-1.2-3.2c-0.2-1.2-0.4-2.4-0.4-3.6
		c0-0.9,0.1-1.8,0.2-2.7c0.1-0.9,0.3-1.7,0.6-2.5c0.3-0.8,0.6-1.5,1-2.1C29,6.6,29.5,6.1,30,5.7z M28,12.1c0-0.1,0-0.3,0-0.4
		c0-0.1,0-0.3,0-0.4c0,0,0-0.1,0-0.1c0-0.3,0.1-0.7,0.2-1c0.2-0.4,0.3-0.7,0.6-1.1c0.2-0.4,0.5-0.8,0.7-1.1c0.2-0.4,0.5-0.7,0.7-1
		c-0.4,0.4-0.7,0.9-1.1,1.5c-0.3,0.6-0.6,1.2-0.8,1.9c-0.2,0.7-0.4,1.4-0.5,2.2c-0.1,0.8-0.2,1.5-0.2,2.3c0,0.9,0.1,1.8,0.2,2.7
		c0.2,0.9,0.4,1.7,0.8,2.5c-0.3-0.8-0.5-1.6-0.7-2.6s-0.2-2-0.2-3c0-0.4,0-0.8,0-1.2C27.9,12.9,27.9,12.5,28,12.1z M29.3,11.6
		c0-0.3,0-0.7,0-1c0-0.3,0-0.6,0-0.9c-0.3,0.7-0.5,1.3-0.6,2c-0.1,0.6-0.1,1.4-0.1,2.3c0,0.5,0,0.9,0,1.4c0,0.5,0.1,0.9,0.1,1.3
		c0-0.4,0.1-0.9,0.1-1.3c0-0.5,0.1-1,0.1-1.4c0-0.5,0.1-0.9,0.1-1.3C29.1,12.2,29.2,11.8,29.3,11.6z M31.8,6.5
		c-0.3,0.3-0.6,0.8-0.8,1.4c-0.2,0.6-0.4,1.2-0.6,1.9c-0.2,0.7-0.3,1.5-0.4,2.2c-0.1,0.8-0.1,1.6-0.1,2.3c0,0.8,0,1.6,0.1,2.4
		c0,0.8,0.1,1.6,0.3,2.3c0-0.4-0.1-0.8-0.1-1.3c0-0.5,0-1,0-1.6c0-0.8,0-1.8,0.1-2.7c0.1-1,0.2-1.9,0.3-2.8C30.6,9.8,30.8,9,31,8.3
		c0.2-0.7,0.5-1.3,0.9-1.8H31.8z M30.1,8.4c0-0.1,0-0.2,0-0.3c0-0.1,0-0.2,0.1-0.3l0.1-0.2c0-0.1,0.1-0.1,0.2-0.2
		c0.1,0,0.2-0.1,0.3-0.1c0.1,0,0.2-0.1,0.3-0.1c0.1,0,0.1-0.1,0.1-0.1c0-0.1-0.1-0.2-0.2-0.2c-0.1,0-0.2-0.1-0.2-0.1
		c0-0.1,0.1-0.1,0.2-0.1c-0.2,0.3-0.4,0.6-0.5,0.9C30.4,7.8,30.2,8.1,30.1,8.4z M39.1,12c-0.2-0.6-0.4-1.2-0.7-1.9
		c-0.3-0.7-0.7-1.3-1.1-1.8s-0.9-1.1-1.4-1.5c-0.5-0.4-1.1-0.7-1.8-0.9c-0.7,0.4-1.2,1-1.7,1.7c-0.4,0.8-0.8,1.6-1,2.6
		c-0.3,1-0.4,2-0.5,3c-0.1,1.1-0.1,2-0.1,3c0,0.5,0,1,0,1.4c0,0.4,0.1,0.8,0.1,1.2c0,0.2,0.1,0.6,0.2,1.1c0.1,0.5,0.3,1,0.6,1.5
		c0.3,0.5,0.6,1,0.9,1.4c0.4,0.4,0.8,0.6,1.2,0.6c0.6,0,1.2-0.1,1.7-0.4c0.5-0.3,0.9-0.6,1.3-1c0.4-0.4,0.7-0.8,1-1.3
		c0.3-0.5,0.5-0.9,0.7-1.3c0.3-0.8,0.5-1.5,0.7-2.3c0.2-0.8,0.3-1.5,0.3-2.3C39.5,14,39.4,13,39.1,12z M31.5,22.8
		c-0.1,0-0.1-0.1-0.2-0.2c0,0,0,0,0,0.1v0C31.3,22.7,31.4,22.8,31.5,22.8z"/>
	<path class="st0" d="M57.4,5.5c-0.4,3.2-0.8,6.3-1.2,9.5c-0.4,3.1-0.8,6.3-1.2,9.5c-0.1,0.1-0.2,0.2-0.4,0.2
		c-0.2,0-0.3-0.1-0.3-0.2c-0.1-0.4-0.2-1.2-0.5-2.4s-0.5-2.5-0.8-4c-0.3-1.5-0.6-3-0.9-4.5c-0.3-1.5-0.5-2.8-0.7-3.9l-1.8,14.1h0.7
		c0.2,0,0.3,0.1,0.3,0.4c0,0.2-0.1,0.3-0.3,0.3c-0.3,0-0.5,0-0.7,0c-0.2,0-0.5,0-1,0c-0.4,0-1.1,0-1.9,0c-0.8,0-2,0-3.4,0.1
		c-0.2,0-0.3-0.1-0.3-0.2c0-0.2,0.1-0.4,0.4-0.4H44c-0.1-0.3-0.1-0.6-0.2-1c-0.1-0.4-0.1-0.7-0.1-1c-0.3-1.8-0.6-3.4-0.8-5
		c-0.3-1.5-0.5-3.2-0.6-5V12c0-0.1,0-0.1,0-0.2c0,0,0-0.1,0-0.2c-0.1-0.9-0.2-1.8-0.3-2.8C41.8,7.9,41.8,7,41.7,6l-1.7,0
		c-0.2,0-0.3-0.1-0.3-0.2c0-0.2,0.1-0.4,0.4-0.5c0.3,0,0.9-0.1,1.6-0.2C42.5,5,43.2,4.9,44,4.8c0.8-0.1,1.5-0.2,2.1-0.3
		c0.7-0.1,1.1-0.1,1.3-0.1c0.2,0,0.3,0.1,0.3,0.2c0,0.1,0,0.2-0.1,0.3c-0.1,0.1-0.2,0.1-0.3,0.2l-0.5,0.2C46.9,6,47,6.8,47,7.5
		c0,0.7,0.1,1.4,0.1,2.1c0,0.2,0,0.3,0,0.4c0,0.1,0,0.1,0.1,0.2h-0.1c0.2,1.3,0.3,2.7,0.5,4c0.2,1.3,0.4,2.5,0.6,3.5
		c0.2,1.1,0.4,2,0.5,2.8c0.2,0.8,0.3,1.3,0.4,1.7c0-0.3,0.1-0.7,0.2-1.4c0.1-0.6,0.2-1.4,0.3-2.2c0.1-0.9,0.2-1.8,0.4-2.8
		c0.1-1,0.3-2,0.4-3c0.1-1,0.3-2,0.4-3c0.1-1,0.2-1.9,0.3-2.7c0-0.1,0.1-0.2,0.2-0.3c0.1-0.1,0.2-0.1,0.3-0.1c0.1,0,0.2,0.1,0.2,0.3
		C51.8,7,51.9,7.4,52,8c0.1,0.6,0.2,1.3,0.4,2.2c0.2,0.9,0.4,1.8,0.6,2.9c0.2,1,0.4,2.1,0.6,3.2c0.2,1.1,0.4,2.1,0.6,3.1
		c0.2,1,0.4,1.9,0.5,2.7c0.1-1,0.3-2.2,0.5-3.5c0.2-1.4,0.4-2.8,0.6-4.2c0.2-1.5,0.4-3,0.6-4.5c0.2-1.5,0.4-2.9,0.5-4.2
		c-0.2,0-0.4,0-0.6,0c-0.2,0-0.5,0-0.7,0c-0.2,0-0.4,0-0.6-0.1c-0.2,0-0.3-0.1-0.3-0.2s0-0.2,0.1-0.3c0.1-0.1,0.2-0.1,0.3-0.2
		c0.3,0,0.7,0,1.3,0c0.6,0,1.2,0,1.8,0c0.6,0,1.1,0,1.5,0.1c0.4,0,0.6,0.1,0.6,0.2s0,0.2-0.1,0.3c-0.1,0.1-0.2,0.1-0.3,0.1H57.4z
		 M42.9,11.5c0.1,1,0.2,2,0.4,3c0.2,1,0.3,2,0.5,3c0.2,1,0.4,2.1,0.6,3.1c0.2,1.1,0.4,2.2,0.6,3.3l0.3,0l-0.9-5.6
		c-0.2-1.3-0.5-2.6-0.7-3.9c-0.2-1.3-0.4-2.6-0.7-4C42.8,10.9,42.8,11.2,42.9,11.5z M42.9,5.9c0,0.5,0.1,0.9,0.1,1.5
		c0,0.5,0.1,1,0.2,1.5c0,0,0-0.1,0-0.1c0-0.1,0-0.1,0-0.2c0,0,0-0.1,0-0.1c0.3,1.8,0.6,3.5,0.9,5c0.3,1.6,0.6,3.2,0.9,5
		c-0.1-1-0.2-2-0.4-3s-0.3-1.9-0.5-2.9s-0.3-1.9-0.4-2.9c-0.1-1-0.2-1.9-0.2-2.9c0-0.2,0-0.3,0-0.4c0-0.1,0-0.3,0-0.4L42.9,5.9z
		 M44.5,5.7c0,0-0.1,0-0.2,0c0.2,1.1,0.3,2.1,0.4,3.1c0.1,0.9,0.2,1.9,0.4,3C45,11.3,45,10.9,45,10.4c0-0.4,0-0.9-0.1-1.4
		c0-0.2,0-0.5,0-0.8c0-0.3,0-0.6,0-0.9c0-0.3,0-0.6-0.1-0.9C44.7,6.3,44.6,6,44.5,5.7z M46.7,23.9c-0.1-0.3-0.2-0.7-0.3-1.3
		c-0.1-0.6-0.1-1.2-0.2-1.8c-0.1-0.6-0.1-1.2-0.1-1.7c0-0.5,0-0.8,0-0.9c0,0,0,0,0-0.1c0,0,0-0.1,0-0.1l-0.6-2.2
		c0.1,0.8,0.2,1.5,0.3,2.3c0.1,0.8,0.2,1.6,0.3,2.3v0.1c0,0.2,0,0.6,0.1,1.1c0.1,0.5,0.1,1,0.1,1.5c0,0.1,0,0.2,0,0.3
		c0,0.1,0,0.2,0,0.3L46.7,23.9z M46.6,10.8c-0.2-0.8-0.3-1.7-0.4-2.7c-0.1-0.9-0.1-1.8-0.2-2.7l-0.5,0.1c0.1,0.3,0.1,0.6,0.1,0.9
		c0,0.3,0,0.6,0.1,0.8c0.2,2,0.5,3.9,0.7,5.8c0.2,1.9,0.6,3.8,1.1,5.7c0,0.2,0.1,0.5,0.1,0.9c0.1,0.5,0.2,0.9,0.3,1.4
		c-0.4-1.8-0.7-3.5-0.8-5.1C47,14.2,46.8,12.5,46.6,10.8z M47.9,23.8c0-0.1-0.1-0.4-0.2-1c-0.1-0.6-0.2-1.2-0.4-1.8
		c0,0.3,0.1,0.5,0.1,0.8c0,0.3,0.1,0.6,0.1,0.9c0,0.3,0.1,0.5,0.1,0.7C47.7,23.6,47.7,23.7,47.9,23.8l-0.4,0L47.9,23.8z"/>
	<path class="st0" d="M72.2,24.3c-2.4,0.1-4.9,0.2-7.3,0.2c-0.5,0-1,0-1.5,0c-0.5,0-1,0-1.5,0h-0.3c-0.1-0.1-0.2-0.2-0.2-0.3
		s0-0.2,0.1-0.3c0.1-0.1,0.2-0.1,0.3-0.1c0,0,0.1,0,0.1,0c0.1,0,0.1,0,0.1,0v-0.1c0-1.4,0-2.9,0-4.5c0-1.6,0-3.1,0-4.7
		c0-1.6,0-3.1,0-4.7c0-1.5,0-3,0-4.5h-1.2c-0.2,0-0.2-0.1-0.2-0.2c0-0.1,0-0.2,0.1-0.3c0.1-0.1,0.2-0.2,0.3-0.2L68,4.8
		c0.1,0.1,0.2,0.2,0.2,0.3c0,0.2-0.2,0.4-0.5,0.4c-0.3,0-0.6,0-1,0c-0.1,0-0.1,0-0.2,0s-0.1,0-0.1,0c0.1,3.4,0.2,6.7,0.3,9.6
		s0.2,5.9,0.2,8.7c0.9,0,1.8,0,2.5,0c0.8,0,1.6-0.1,2.5-0.1c0.3,0,0.5,0.2,0.5,0.4C72.4,24.2,72.3,24.3,72.2,24.3z M62.8,10.9
		c0-2,0.1-3.4,0.1-4.2c0-0.8,0.1-1.3,0.1-1.4h-0.2V10.9z M63.4,12.8c0-0.3,0-0.6,0.1-1.1c0-0.5,0-0.9,0.1-1.5c0-0.5,0-1.1,0.1-1.6
		c0-0.5,0.1-1,0.1-1.5s0-0.8,0-1.1c0-0.3,0-0.4,0-0.5h-0.3c0,0,0,0.2-0.1,0.6c0,0.4,0,0.9-0.1,1.5c0,0.6,0,1.3-0.1,2.1
		c0,0.8-0.1,1.5-0.1,2.2c0,0.7,0,1.4,0,2c0,0.6,0,1.1,0,1.4c0,0.3,0,0.5,0,0.5L63.4,12.8z M64.4,19c0-0.9,0-1.9,0.1-2.9
		c0-1.1,0.1-2.1,0.2-3.3l-0.1-2.4c0,1.1-0.1,2.3-0.2,3.4c-0.1,1.1-0.1,2.2-0.1,3.3c0,0.4,0,0.7,0,1.1c0,0.4,0.1,0.7,0.1,1.1V19z
		 M65.1,23.8h0.2v-5.4L65.1,23.8z M65.4,13.8c0,1.1,0.1,2.2,0.3,3.5c0.1,1.2,0.3,2.4,0.3,3.5L65.7,5.7L65.4,13.8z"/>
	<path class="st0" d="M75,5.7c0.4-0.3,0.8-0.5,1.4-0.7c0.5-0.2,1.1-0.2,1.6-0.2c0.7,0,1.4,0.1,2,0.4c0.6,0.3,1.1,0.6,1.6,1.1
		c2.5,2.8,3.7,5.7,3.7,8.7c0,1.6-0.4,3.3-1.1,5c-0.4,0.6-0.8,1.3-1.3,1.8c-0.5,0.6-0.9,1.1-1.4,1.5c-0.5,0.4-1,0.8-1.6,1
		c-0.6,0.2-1.1,0.4-1.7,0.4c-1.1,0-2-0.3-2.8-0.9c-0.8-0.6-1.4-1.4-2-2.4c-0.5-1-0.9-2-1.2-3.2s-0.4-2.4-0.4-3.6
		c0-0.9,0.1-1.8,0.2-2.7c0.1-0.9,0.3-1.7,0.6-2.5c0.3-0.8,0.6-1.5,1-2.1C74.1,6.6,74.5,6.1,75,5.7z M73.1,12.1c0-0.1,0-0.3,0-0.4
		c0-0.1,0-0.3,0-0.4c0,0,0-0.1,0-0.1c0-0.3,0.1-0.7,0.2-1c0.2-0.4,0.3-0.7,0.6-1.1c0.2-0.4,0.5-0.8,0.7-1.1c0.2-0.4,0.5-0.7,0.7-1
		c-0.4,0.4-0.7,0.9-1.1,1.5c-0.3,0.6-0.6,1.2-0.8,1.9c-0.2,0.7-0.4,1.4-0.5,2.2c-0.1,0.8-0.2,1.5-0.2,2.3c0,0.9,0.1,1.8,0.2,2.7
		c0.2,0.9,0.4,1.7,0.8,2.5c-0.3-0.8-0.5-1.6-0.7-2.6c-0.1-1-0.2-2-0.2-3c0-0.4,0-0.8,0-1.2C73,12.9,73,12.5,73.1,12.1z M74.3,11.6
		c0-0.3,0-0.7,0-1c0-0.3,0-0.6,0-0.9c-0.3,0.7-0.5,1.3-0.6,2c-0.1,0.6-0.1,1.4-0.1,2.3c0,0.5,0,0.9,0,1.4c0,0.5,0.1,0.9,0.1,1.3
		c0-0.4,0.1-0.9,0.1-1.3c0-0.5,0.1-1,0.1-1.4c0-0.5,0.1-0.9,0.1-1.3C74.2,12.2,74.3,11.8,74.3,11.6z M76.8,6.5
		c-0.3,0.3-0.6,0.8-0.8,1.4c-0.2,0.6-0.4,1.2-0.6,1.9c-0.2,0.7-0.3,1.5-0.4,2.2c-0.1,0.8-0.1,1.6-0.1,2.3c0,0.8,0,1.6,0.1,2.4
		c0,0.8,0.1,1.6,0.3,2.3c0-0.4-0.1-0.8-0.1-1.3c0-0.5,0-1,0-1.6c0-0.8,0-1.8,0.1-2.7s0.2-1.9,0.3-2.8c0.1-0.9,0.3-1.7,0.6-2.5
		C76.3,7.5,76.6,7,77,6.5H76.8z M75.2,8.4c0-0.1,0-0.2,0-0.3c0-0.1,0-0.2,0.1-0.3l0.1-0.2c0-0.1,0.1-0.1,0.2-0.2s0.2-0.1,0.3-0.1
		c0.1,0,0.2-0.1,0.3-0.1c0.1,0,0.1-0.1,0.1-0.1c0-0.1-0.1-0.2-0.2-0.2C76,6.9,76,6.8,76,6.8c0-0.1,0.1-0.1,0.2-0.1
		c-0.2,0.3-0.4,0.6-0.5,0.9C75.4,7.8,75.3,8.1,75.2,8.4z M84.2,12c-0.2-0.6-0.4-1.2-0.7-1.9c-0.3-0.7-0.7-1.3-1.1-1.8
		C82,7.8,81.5,7.3,81,6.8c-0.5-0.4-1.1-0.7-1.8-0.9c-0.7,0.4-1.2,1-1.7,1.7c-0.4,0.8-0.8,1.6-1,2.6c-0.3,1-0.4,2-0.5,3
		c-0.1,1.1-0.1,2-0.1,3c0,0.5,0,1,0,1.4c0,0.4,0.1,0.8,0.1,1.2c0,0.2,0.1,0.6,0.2,1.1c0.1,0.5,0.3,1,0.6,1.5c0.3,0.5,0.6,1,0.9,1.4
		c0.4,0.4,0.8,0.6,1.2,0.6c0.6,0,1.2-0.1,1.7-0.4c0.5-0.3,0.9-0.6,1.3-1c0.4-0.4,0.7-0.8,1-1.3c0.3-0.5,0.5-0.9,0.7-1.3
		c0.3-0.8,0.5-1.5,0.7-2.3c0.2-0.8,0.3-1.5,0.3-2.3C84.6,14,84.4,13,84.2,12z M76.5,22.8c-0.1,0-0.1-0.1-0.2-0.2c0,0,0,0,0,0.1v0
		C76.4,22.7,76.4,22.8,76.5,22.8z"/>
	<path class="st0" d="M97,9.7c0,0.2-0.2,0.3-0.4,0.3c-0.2,0-0.3-0.1-0.3-0.4l0.3-1.5c-0.3-0.4-0.8-0.8-1.2-1.2
		c-0.5-0.4-1-0.8-1.6-1.1c-0.5,0.2-0.9,0.6-1.2,1.3c-0.3,0.7-0.6,1.5-0.8,2.4c-0.2,0.9-0.4,1.9-0.5,3C91,13.6,91,14.7,91,15.7
		c0,1.2,0.1,2.3,0.2,3.3c0.1,1,0.3,1.8,0.5,2.4c0.5,0.7,0.9,1.2,1.2,1.4s0.5,0.3,0.7,0.3c0.2,0,0.4-0.1,0.7-0.3
		c0.3-0.2,0.6-0.3,0.9-0.5c0.3-0.2,0.6-0.4,0.9-0.6c0.3-0.2,0.5-0.4,0.7-0.6c-0.1-0.9-0.2-1.9-0.2-2.8c-0.1-0.9-0.1-1.9-0.1-2.8
		l-3.5,0.5c-0.2,0-0.3-0.1-0.3-0.2c0-0.2,0.1-0.4,0.4-0.5c1-0.1,2-0.3,3-0.4c1-0.1,2-0.2,3-0.2c0.2,0,0.3,0.1,0.3,0.2
		c0,0.2-0.1,0.4-0.4,0.5l-1.9,0.1c0,0.3,0.1,0.8,0.1,1.4c0,0.6,0.1,1.3,0.1,2.1c0.1,0.8,0.1,1.5,0.2,2.4c0.1,0.8,0.1,1.6,0.2,2.3
		c0,0.7,0.1,1.4,0.1,1.9c0,0.6,0.1,0.9,0.1,1.2c0,0.2-0.2,0.3-0.3,0.3c-0.2,0-0.3-0.2-0.3-0.6C97.1,26,97,25.5,97,25
		c0-0.5-0.1-1.1-0.1-1.7c0-0.6-0.1-1.1-0.1-1.6c-0.4,0.3-0.7,0.6-1,0.8c-0.3,0.3-0.6,0.5-1,0.8c-0.3,0.2-0.7,0.4-1.1,0.6
		c-0.4,0.2-0.8,0.2-1.4,0.2c-0.6,0-1.1-0.1-1.7-0.3c-0.6-0.2-1-0.5-1.4-1L89,22.6c-0.6-0.7-1-1.4-1.3-2.3c-0.3-0.9-0.6-1.8-0.7-2.7
		c-0.3-0.8-0.4-1.8-0.4-2.9c0-1.1,0.1-2.2,0.4-3.3c0.2-1.2,0.6-2.2,1.1-3.2c0.5-1,1.1-1.8,1.8-2.4c0.7-0.6,1.6-0.9,2.6-0.9
		c0.8,0,1.6,0.2,2.2,0.6c0.7,0.4,1.4,1,2.2,1.8L97,5.7c0.1-0.2,0.2-0.3,0.4-0.3c0.2,0,0.2,0.1,0.3,0.3L97,9.7z M90,6.3
		c-0.5,0.5-0.9,1-1.3,1.7c-0.3,0.7-0.6,1.4-0.8,2.1c-0.2,0.8-0.4,1.5-0.5,2.3s-0.2,1.5-0.2,2.2c0.1-0.6,0.2-1.3,0.4-2
		c0.2-0.8,0.4-1.5,0.7-2.3c0.2-0.8,0.5-1.5,0.8-2.2C89.4,7.4,89.7,6.8,90,6.3z M89.9,8c-0.5,1.2-0.9,2.4-1,3.6s-0.3,2.5-0.3,3.8
		c0,0.2,0,0.5,0,0.7c0,0.3,0,0.5,0,0.7c0-0.3,0.1-0.6,0.1-1.2c0-0.5,0.1-1.1,0.1-1.6c0.1-0.6,0.1-1.1,0.2-1.6
		c0.1-0.5,0.1-0.9,0.2-1.1c0-0.5,0.1-1,0.2-1.6C89.6,9.1,89.7,8.5,89.9,8z M90.7,22.3c-0.5-0.4-0.8-0.9-1.1-1.6
		c-0.3-0.7-0.5-1.4-0.8-2.3c0.1,0.8,0.2,1.5,0.5,2.2C89.6,21.4,90.1,21.9,90.7,22.3z M90.4,18c-0.1-0.5-0.1-1.1-0.2-1.6
		c0-0.6-0.1-1.1-0.1-1.7c0-1.4,0.1-2.8,0.4-4.1c0.3-1.3,0.7-2.5,1.2-3.6V7c-0.1,0.2-0.2,0.3-0.3,0.5c-0.1,0.2-0.1,0.3-0.2,0.5
		l-0.5,1.2c0,0,0,0.1,0,0.1c0,0,0,0,0,0.1c-0.3,0.9-0.5,1.8-0.6,2.5c-0.1,0.8-0.2,1.5-0.2,2.3c0,0.6,0,1.3,0.1,2
		C90.1,16.9,90.2,17.5,90.4,18z"/>
</g>
</svg>
